<?xml version="1.0" encoding="UTF-8" standalone="no"?>
<!-- Created with Inkscape (http://www.inkscape.org/) -->

<svg
   width="50.000721mm"
   height="21.055mm"
   viewBox="0 0 50.000721 21.055"
   version="1.1"
   id="svg2382"
   inkscape:version="1.4 (86a8ad7, 2024-10-11)"
   sodipodi:docname="dcl.svg"
   xmlns:inkscape="http://www.inkscape.org/namespaces/inkscape"
   xmlns:sodipodi="http://sodipodi.sourceforge.net/DTD/sodipodi-0.dtd"
   xmlns="http://www.w3.org/2000/svg"
   xmlns:svg="http://www.w3.org/2000/svg">
  <sodipodi:namedview
     id="namedview2384"
     pagecolor="#ffffff"
     bordercolor="#666666"
     borderopacity="1.0"
     inkscape:showpageshadow="2"
     inkscape:pageopacity="0.0"
     inkscape:pagecheckerboard="0"
     inkscape:deskcolor="#d1d1d1"
     inkscape:document-units="mm"
     showgrid="false"
     inkscape:zoom="2.5629117"
     inkscape:cx="104.95875"
     inkscape:cy="45.651202"
     inkscape:window-width="1536"
     inkscape:window-height="961"
     inkscape:window-x="-8"
     inkscape:window-y="-8"
     inkscape:window-maximized="1"
     inkscape:current-layer="layer2" />
  <defs
     id="defs2379" />
  <g
     inkscape:groupmode="layer"
     id="layer2"
     inkscape:label="Trace"
     style="display:inline">
    <path
       id="path9127"
       style="opacity:1;fill:#1a1a1a;fill-opacity:1;stroke:none;stroke-width:0.264583px;stroke-linecap:butt;stroke-linejoin:miter;stroke-opacity:1"
       d="M 27.739909,0.00671794 C 17.579071,0.08142914 7.3155347,12.088483 0.04650879,6.4202799 5.2343613,12.290324 11.064366,11.099316 16.835665,8.6015422 16.720202,8.2579759 16.663604,7.8895545 16.673918,7.5158203 c 0.02537,-0.9194761 0.429056,-1.8635611 1.080037,-2.6034586 0.827761,-0.941487 2.056496,-1.5398488 3.222542,-1.5141195 0.666972,0.01496 1.309691,0.2347613 1.806608,0.6371704 0.416596,0.3371892 0.72238,0.799827 0.888318,1.3182658 C 29.008524,2.8571909 34.039789,1.2534837 38.161495,5.4895874 34.786517,1.3949398 31.269463,-0.01923438 27.739909,0.00671794 Z m 5.71748,5.14335526 c -0.02273,1.672e-4 -0.04548,7.474e-4 -0.06821,0.00103 0.535605,0.6986551 0.863524,1.5411425 0.886251,2.3647135 0.0105,0.3804884 -0.0482,0.755496 -0.167948,1.1043254 3.564107,-1.0563855 6.890053,-0.9491385 9.771496,2.0122799 C 40.503999,6.5377781 36.986944,5.1241211 33.457389,5.1500732 Z M 20.234424,10.318233 c -0.476542,0.08366 -0.954421,0.109496 -1.398881,0.03979 -4.863086,2.382245 -9.3583875,4.100528 -13.0715537,1.205094 4.5515027,5.150017 9.5974217,4.865359 14.6642207,3.03134 -0.360674,-0.752521 -0.557142,-1.583691 -0.557071,-2.418457 5.67e-4,-0.636576 0.150054,-1.258019 0.363285,-1.857767 z m 19.132165,0.05788 c -2.787834,0.0205 -5.583166,0.94012 -8.322489,2.145605 -0.08662,1.345079 -0.672558,2.655383 -1.626257,3.609082 -1.035385,1.035386 -2.490517,1.638711 -3.954798,1.63866 -1.142515,-4.02e-4 -2.27827,-0.370288 -3.214274,-1.024227 -3.903555,1.68008 -7.506524,2.437615 -10.575582,0.04444 C 23.864256,30.583836 39.602389,5.3904832 49.788175,15.858978 46.413199,11.76433 42.896144,10.350157 39.366589,10.376109 Z M 20.965129,3.9501465 a 2.6664816,3.3261072 45.606317 0 0 -2.799313,1.3255005 2.6664816,3.3261072 45.606317 0 0 -0.115238,4.1749389 2.6664816,3.3261072 45.606317 0 0 3.108337,0.1059367 5.0427918,5.0425434 0 0 0 -0.737939,2.6199954 5.0427918,5.0425434 0 0 0 5.042586,5.042586 5.0427918,5.0425434 0 0 0 5.043103,-5.042586 5.0427918,5.0425434 0 0 0 -0.745174,-2.6365318 3.3261072,2.6664816 44.393683 0 0 3.137276,-0.0894 A 3.3261072,2.6664816 44.393683 0 0 32.783529,5.275647 3.3261072,2.6664816 44.393683 0 0 28.512472,4.4632935 3.3261072,2.6664816 44.393683 0 0 28.100094,7.8780721 5.0427918,5.0425434 0 0 0 25.463562,7.1339315 5.0427918,5.0425434 0 0 0 22.85752,7.8625692 2.6664816,3.3261072 45.606317 0 0 22.436873,4.4632935 2.6664816,3.3261072 45.606317 0 0 20.965129,3.9501465 Z" />
  </g>
</svg>
